<svg width="28" height="28" viewBox="0 0 28 28" fill="none" xmlns="http://www.w3.org/2000/svg">
<path d="M12.8333 16.3327L15.1667 16.3327C15.7855 16.3327 16.379 16.0868 16.8166 15.6493C17.2542 15.2117 17.5 14.6182 17.5 13.9993C17.5 13.3805 17.2542 12.787 16.8166 12.3494C16.379 11.9118 15.7855 11.666 15.1667 11.666L11.6667 11.666C10.9667 11.666 10.3833 11.8993 10.0333 12.366L3.5 18.666" stroke="#FAF8F5" stroke-width="2.33333" stroke-linecap="round" stroke-linejoin="round"/>
<path d="M8.16663 23.3333L10.0333 21.7C10.3833 21.2333 10.9666 21 11.6666 21L16.3333 21C17.6166 21 18.7833 20.5333 19.6 19.6L24.9666 14.4667C25.4168 14.0412 25.6796 13.4543 25.6971 12.8352C25.7146 12.216 25.4854 11.6152 25.06 11.165C24.6345 10.7148 24.0476 10.452 23.4285 10.4345C22.8093 10.417 22.2085 10.6462 21.7583 11.0717L16.8583 15.6217" stroke="#FAF8F5" stroke-width="2.33333" stroke-linecap="round" stroke-linejoin="round"/>
<path d="M2.33337 17.5L9.33337 24.5" stroke="#FAF8F5" stroke-width="2.33333" stroke-linecap="round" stroke-linejoin="round"/>
<path d="M22.75 9.91569C23.5666 9.09902 24.5 8.04902 24.5 6.76569C24.5815 6.05277 24.4199 5.33321 24.0414 4.7236C23.6629 4.114 23.0896 3.65008 22.4144 3.40702C21.7393 3.16397 21.0018 3.15602 20.3216 3.38447C19.6414 3.61293 19.0582 4.06438 18.6666 4.66569C18.2502 4.11104 17.6669 3.7045 17.0023 3.50577C16.3378 3.30704 15.6271 3.32658 14.9745 3.56151C14.3219 3.79645 13.7618 4.23441 13.3764 4.81111C12.991 5.3878 12.8007 6.07285 12.8333 6.76569C12.8333 8.16569 13.7666 9.09902 14.5833 10.0324L18.6666 13.999L22.75 9.91569Z" stroke="#FAF8F5" stroke-width="2.33333" stroke-linecap="round" stroke-linejoin="round"/>
</svg>
