<svg width="30" height="31" viewBox="0 0 30 31" fill="none" xmlns="http://www.w3.org/2000/svg">
<path d="M8.02734 13.2871C8.31055 13.1895 8.64746 13.1162 9.03809 13.0674C9.43848 13.0088 9.89746 13.0039 10.415 13.0527C10.5615 13.0625 10.6885 13.0234 10.7959 12.9355C10.9131 12.8379 10.9766 12.7158 10.9863 12.5693C11.0059 12.4229 10.9668 12.2959 10.8691 12.1885C10.7812 12.0713 10.6641 12.0078 10.5176 11.998C9.92188 11.9395 9.38477 11.9443 8.90625 12.0127C8.4375 12.0811 8.02734 12.1787 7.67578 12.3057C7.53906 12.3545 7.43652 12.4473 7.36816 12.584C7.30957 12.7109 7.30469 12.8428 7.35352 12.9795C7.40234 13.1162 7.49023 13.2139 7.61719 13.2725C7.75391 13.3311 7.89062 13.3359 8.02734 13.2871ZM21.2988 12.3057C20.957 12.1787 20.5469 12.0811 20.0684 12.0127C19.5996 11.9443 19.0674 11.9395 18.4717 11.998C18.3252 12.0078 18.2031 12.0713 18.1055 12.1885C18.0176 12.2959 17.9785 12.4229 17.9883 12.5693C18.0078 12.7158 18.0713 12.8379 18.1787 12.9355C18.2959 13.0234 18.4277 13.0625 18.5742 13.0527C19.0918 13.0039 19.5459 13.0088 19.9365 13.0674C20.3369 13.1162 20.6738 13.1895 20.9473 13.2871C21.084 13.3359 21.2158 13.3311 21.3428 13.2725C21.4795 13.2139 21.5723 13.1162 21.6211 12.9795C21.6699 12.8428 21.665 12.7109 21.6064 12.584C21.5479 12.4473 21.4453 12.3545 21.2988 12.3057ZM9.71191 14.3125C8.9502 14.3125 8.27637 14.5469 7.69043 15.0156C7.10449 15.4844 6.71875 16.0752 6.5332 16.7881C6.48438 16.9834 6.52344 17.1641 6.65039 17.3301C6.78711 17.4961 6.96289 17.5791 7.17773 17.5791H8.18848C8.13965 17.374 8.11523 17.1885 8.11523 17.0225C8.11523 16.4463 8.31543 15.958 8.71582 15.5576C9.12598 15.1475 9.61914 14.9424 10.1953 14.9424C10.7715 14.9424 11.2646 15.1475 11.6748 15.5576C12.085 15.958 12.29 16.4463 12.29 17.0225C12.29 17.2275 12.2656 17.4131 12.2168 17.5791H12.3926C12.5586 17.5791 12.6953 17.5156 12.8027 17.3887C12.9199 17.252 12.959 17.1055 12.9199 16.9492C12.7734 16.1973 12.4023 15.5723 11.8066 15.0742C11.2109 14.5664 10.5127 14.3125 9.71191 14.3125ZM19.8779 14.3125C20.6396 14.3125 21.3135 14.5469 21.8994 15.0156C22.4854 15.4844 22.8711 16.0752 23.0566 16.7881C23.1055 16.9834 23.0615 17.1641 22.9248 17.3301C22.7979 17.4961 22.627 17.5791 22.4121 17.5791H21.4014C21.4502 17.374 21.4746 17.1885 21.4746 17.0225C21.4746 16.4463 21.2695 15.958 20.8594 15.5576C20.459 15.1475 19.9707 14.9424 19.3945 14.9424C18.8184 14.9424 18.3252 15.1475 17.915 15.5576C17.5049 15.958 17.2998 16.4463 17.2998 17.0225C17.2998 17.2275 17.3242 17.4131 17.373 17.5791H17.1973C17.0312 17.5791 16.8896 17.5156 16.7725 17.3887C16.665 17.252 16.6309 17.1055 16.6699 16.9492C16.8164 16.1973 17.1875 15.5723 17.7832 15.0742C18.3789 14.5664 19.0771 14.3125 19.8779 14.3125ZM18.3984 16.3486C18.2617 16.5537 18.1934 16.7783 18.1934 17.0225C18.1934 17.2178 18.2373 17.4082 18.3252 17.5938H20.4492C20.5371 17.4082 20.5811 17.2178 20.5811 17.0225C20.5811 16.7002 20.4639 16.4219 20.2295 16.1875C20.0049 15.9531 19.7217 15.8359 19.3799 15.8359C19.2334 15.8359 19.0967 15.8604 18.9697 15.9092C19.0674 15.9873 19.1162 16.085 19.1162 16.2021C19.1162 16.4463 18.9893 16.5684 18.7354 16.5684C18.5791 16.5684 18.4668 16.4951 18.3984 16.3486ZM11.3965 17.0225C11.3965 16.6904 11.2793 16.4121 11.0449 16.1875C10.8105 15.9531 10.5273 15.8359 10.1953 15.8359C10.0293 15.8359 9.87305 15.8652 9.72656 15.9238C9.81445 16.002 9.8584 16.0947 9.8584 16.2021C9.8584 16.4463 9.73145 16.5684 9.47754 16.5684C9.35059 16.5684 9.25293 16.5146 9.18457 16.4072C9.06738 16.6025 9.00879 16.8076 9.00879 17.0225C9.00879 17.2178 9.05273 17.4082 9.14062 17.5938H11.25C11.3477 17.4082 11.3965 17.2178 11.3965 17.0225ZM14.7803 21.1387C15.5029 21.1387 16.0742 20.8359 16.4941 20.2305C16.6602 19.9766 16.6699 19.7129 16.5234 19.4395C16.3867 19.166 16.1719 19.0293 15.8789 19.0293H13.6816C13.3887 19.0293 13.1689 19.166 13.0225 19.4395C12.8857 19.7129 12.9004 19.9766 13.0664 20.2305C13.4766 20.8359 14.0479 21.1387 14.7803 21.1387ZM14.7803 22.3838C14.1943 22.3838 13.6328 22.3154 13.0957 22.1787C12.5586 22.042 12.0605 21.8516 11.6016 21.6074C11.4453 21.5293 11.3037 21.5586 11.1768 21.6953C11.0596 21.8223 11.0498 21.959 11.1475 22.1055C11.5283 22.7109 12.041 23.1943 12.6855 23.5557C13.3301 23.917 14.0283 24.0977 14.7803 24.0977C15.542 24.0977 16.2402 23.917 16.875 23.5557C17.5195 23.1943 18.0371 22.7109 18.4277 22.1055C18.5156 21.959 18.501 21.8223 18.3838 21.6953C18.2666 21.5586 18.1299 21.5293 17.9736 21.6074C17.0068 22.125 15.9424 22.3838 14.7803 22.3838ZM24.4043 2.90137C24.668 3.50684 25.1025 3.93164 25.708 4.17578C26.5088 4.49805 27.1582 5.03027 27.6562 5.77246C28.1641 6.51465 28.4033 7.34961 28.374 8.27734C28.3643 8.81445 28.2617 9.32227 28.0664 9.80078C27.8809 10.2695 27.6221 10.6895 27.29 11.0605C26.9385 11.4609 26.7041 11.915 26.5869 12.4229C27.4561 12.7256 28.1738 13.2627 28.7402 14.0342C29.3066 14.8057 29.5898 15.6797 29.5898 16.6562C29.5898 17.7109 29.2676 18.6387 28.623 19.4395C27.9785 20.2402 27.168 20.7627 26.1914 21.0068C25.8594 22.9502 25.1465 24.6445 24.0527 26.0898C22.9688 27.5352 21.626 28.6533 20.0244 29.4443C18.4229 30.2451 16.6797 30.6455 14.7949 30.6455C12.9102 30.6455 11.1621 30.2451 9.55078 29.4443C7.94922 28.6533 6.60156 27.5352 5.50781 26.0898C4.42383 24.6445 3.71582 22.9502 3.38379 21.0068C2.41699 20.7627 1.61133 20.2402 0.966797 19.4395C0.322266 18.6387 0 17.7109 0 16.6562C0 15.6797 0.27832 14.8105 0.834961 14.0488C1.3916 13.2871 2.10449 12.75 2.97363 12.4375L2.91504 10.6211C2.85645 9.09766 3.13965 7.68164 3.76465 6.37305C4.38965 5.05469 5.26367 3.94629 6.38672 3.04785C7.50977 2.14941 8.78906 1.55371 10.2246 1.26074C10.625 0.889648 11.084 0.59668 11.6016 0.381836C12.1191 0.166992 12.666 0.0498047 13.2422 0.0302734C13.7402 0.0107422 14.2188 0.0693359 14.6777 0.206055C15.1465 0.342773 15.5713 0.542969 15.9521 0.806641C16.4697 1.1582 16.9873 1.1582 17.5049 0.806641C17.8955 0.542969 18.3203 0.342773 18.7793 0.206055C19.248 0.0693359 19.7314 0.0107422 20.2295 0.0302734C21.167 0.0595703 22.0068 0.342773 22.749 0.879883C23.4912 1.40723 24.043 2.08105 24.4043 2.90137ZM5.02441 10.665L5.1123 13.2139C5.12207 13.4873 5.03906 13.7314 4.86328 13.9463C4.6875 14.1514 4.46289 14.2686 4.18945 14.2979C3.60352 14.376 3.11035 14.6396 2.70996 15.0889C2.30957 15.5283 2.10938 16.0508 2.10938 16.6562C2.10938 17.291 2.3291 17.8379 2.76855 18.2969C3.20801 18.7559 3.74512 19 4.37988 19.0293C4.63379 19.0391 4.85352 19.1367 5.03906 19.3223C5.23438 19.498 5.34668 19.7129 5.37598 19.9668C5.56152 21.6953 6.09375 23.2041 6.97266 24.4932C7.85156 25.7725 8.96973 26.7637 10.3271 27.4668C11.6846 28.1797 13.1738 28.5361 14.7949 28.5361C16.4062 28.5361 17.8906 28.1797 19.248 27.4668C20.6055 26.7637 21.7236 25.7725 22.6025 24.4932C23.4814 23.2041 24.0137 21.6953 24.1992 19.9668C24.2285 19.7129 24.3359 19.498 24.5215 19.3223C24.7168 19.1367 24.9463 19.0391 25.21 19.0293C25.835 19 26.3672 18.7559 26.8066 18.2969C27.2559 17.8379 27.4805 17.291 27.4805 16.6562C27.4805 16.0508 27.2754 15.5234 26.8652 15.0742C26.4551 14.625 25.9521 14.3662 25.3564 14.2979C25.083 14.2686 24.8535 14.1514 24.668 13.9463C24.4922 13.7314 24.4092 13.4824 24.4189 13.1992L24.5215 11.0459C24.1211 10.7432 23.667 10.5918 23.1592 10.5918H17.7979C16.665 10.5918 15.6055 10.3379 14.6191 9.83008C13.6426 9.3125 12.832 8.62402 12.1875 7.76465C12.1582 7.71582 12.124 7.68652 12.085 7.67676H11.9385C11.8311 7.70605 11.7773 7.7793 11.7773 7.89648V9.72754C11.7773 9.97168 11.6943 10.1768 11.5283 10.3428C11.3623 10.5088 11.1621 10.5918 10.9277 10.5918C10.0195 10.5918 9.19922 10.333 8.4668 9.81543C7.74414 9.28809 7.22168 8.61914 6.89941 7.80859C6.86035 7.70117 6.78711 7.66211 6.67969 7.69141C6.5918 7.71094 6.54297 7.76465 6.5332 7.85254C6.35742 8.8584 5.92285 9.72266 5.22949 10.4453C5.15137 10.5234 5.08301 10.5967 5.02441 10.665Z" fill="#3D3129"/>
</svg>
