<svg width="30" height="31" viewBox="0 0 30 31" fill="none" xmlns="http://www.w3.org/2000/svg">
<path d="M19.4092 16.3027C19.751 16.3027 20.0342 16.4199 20.2588 16.6543C20.4932 16.8887 20.6104 17.167 20.6104 17.4893C20.6104 17.6846 20.5664 17.8701 20.4785 18.0459H18.3545C18.2666 17.8701 18.2227 17.6846 18.2227 17.4893C18.2227 17.2451 18.291 17.0205 18.4277 16.8154C18.4961 16.9619 18.6084 17.0352 18.7646 17.0352C19.0186 17.0352 19.1455 16.9131 19.1455 16.6689C19.1455 16.542 19.0967 16.4443 18.999 16.376C19.126 16.3271 19.2627 16.3027 19.4092 16.3027ZM11.4258 17.4893C11.4258 17.6846 11.377 17.8701 11.2793 18.0459H9.16992C9.08203 17.8701 9.03809 17.6846 9.03809 17.4893C9.03809 17.2744 9.09668 17.0693 9.21387 16.874C9.28223 16.9814 9.37988 17.0352 9.50684 17.0352C9.76074 17.0352 9.8877 16.9131 9.8877 16.6689C9.8877 16.5615 9.84375 16.4688 9.75586 16.3906C9.90234 16.332 10.0586 16.3027 10.2246 16.3027C10.5566 16.3027 10.8398 16.4199 11.0742 16.6543C11.3086 16.8789 11.4258 17.1572 11.4258 17.4893ZM10.2246 15.3945C9.64844 15.3945 9.15527 15.5996 8.74512 16.0098C8.34473 16.4199 8.14453 16.9131 8.14453 17.4893C8.14453 17.6553 8.16895 17.8408 8.21777 18.0459H7.20703C6.99219 18.0459 6.81641 17.9629 6.67969 17.7969C6.55273 17.6309 6.51367 17.4502 6.5625 17.2549C6.74805 16.542 7.13379 15.9512 7.71973 15.4824C8.30566 15.0137 8.97949 14.7793 9.74121 14.7793C10.542 14.7793 11.2402 15.0332 11.8359 15.541C12.4316 16.0391 12.8027 16.6592 12.9492 17.4014C12.9883 17.5674 12.9492 17.7188 12.832 17.8555C12.7246 17.9824 12.5879 18.0459 12.4219 18.0459H12.2461C12.2949 17.8799 12.3193 17.6943 12.3193 17.4893C12.3193 16.9131 12.1143 16.4199 11.7041 16.0098C11.2939 15.5996 10.8008 15.3945 10.2246 15.3945ZM19.9072 14.7793C20.6689 14.7793 21.3428 15.0137 21.9287 15.4824C22.5146 15.9512 22.9004 16.542 23.0859 17.2549C23.1348 17.4502 23.0908 17.6309 22.9541 17.7969C22.8271 17.9629 22.6562 18.0459 22.4414 18.0459H21.4307C21.4795 17.8408 21.5039 17.6553 21.5039 17.4893C21.5039 16.9131 21.2988 16.4199 20.8887 16.0098C20.4785 15.5996 19.9854 15.3945 19.4092 15.3945C18.8428 15.3945 18.3545 15.5996 17.9443 16.0098C17.5342 16.4199 17.3291 16.9131 17.3291 17.4893C17.3291 17.6943 17.3535 17.8799 17.4023 18.0459H17.2266C17.0605 18.0459 16.9189 17.9824 16.8018 17.8555C16.6943 17.7188 16.6553 17.5674 16.6846 17.4014C16.8408 16.6592 17.2168 16.0391 17.8125 15.541C18.4082 15.0332 19.1064 14.7793 19.9072 14.7793ZM8.05664 14.3105C7.91992 14.3594 7.7832 14.3545 7.64648 14.2959C7.51953 14.2373 7.43164 14.1396 7.38281 14.0029C7.33398 13.8662 7.33887 13.7344 7.39746 13.6074C7.46582 13.4707 7.56836 13.3779 7.70508 13.3291C8.05664 13.2021 8.4668 13.1045 8.93555 13.0361C9.41406 12.9678 9.95117 12.9629 10.5469 13.0215C10.6934 13.0312 10.8105 13.0947 10.8984 13.2119C10.9961 13.3193 11.0352 13.4463 11.0156 13.5928C11.0059 13.7393 10.9424 13.8613 10.8252 13.959C10.7178 14.0469 10.5908 14.0859 10.4443 14.0762C9.92676 14.0273 9.46777 14.0322 9.06738 14.0908C8.67676 14.1396 8.33984 14.2129 8.05664 14.3105ZM18.6035 14.0762C18.457 14.0859 18.3252 14.0469 18.208 13.959C18.1006 13.8613 18.0371 13.7393 18.0176 13.5928C18.0078 13.4463 18.0469 13.3193 18.1348 13.2119C18.2324 13.0947 18.3545 13.0312 18.501 13.0215C19.0967 12.9629 19.6289 12.9678 20.0977 13.0361C20.5762 13.1045 20.9863 13.2021 21.3281 13.3291C21.4746 13.3779 21.5771 13.4707 21.6357 13.6074C21.6943 13.7344 21.6992 13.8662 21.6504 14.0029C21.6016 14.1396 21.5088 14.2373 21.3721 14.2959C21.2451 14.3545 21.1133 14.3594 20.9766 14.3105C20.7031 14.2129 20.3662 14.1396 19.9658 14.0908C19.5752 14.0322 19.1211 14.0273 18.6035 14.0762ZM18.0176 21.7959C18.1738 21.708 18.3105 21.7324 18.4277 21.8691C18.5449 21.9961 18.5547 22.1377 18.457 22.2939C18.0762 22.8896 17.5635 23.373 16.9189 23.7441C16.2842 24.1055 15.5859 24.2861 14.8242 24.2861C14.0625 24.2861 13.3594 24.1055 12.7148 23.7441C12.0801 23.373 11.5723 22.8896 11.1914 22.2939C11.0938 22.1377 11.1035 21.9961 11.2207 21.8691C11.3477 21.7324 11.4893 21.708 11.6455 21.7959C12.1045 22.0303 12.6025 22.2158 13.1396 22.3525C13.6768 22.4893 14.2383 22.5576 14.8242 22.5576C15.9863 22.5576 17.0508 22.3037 18.0176 21.7959ZM14.8096 21.1074C14.0869 21.1074 13.5156 20.7998 13.0957 20.1846C12.9297 19.9404 12.915 19.6816 13.0518 19.4082C13.1982 19.1348 13.418 18.998 13.7109 18.998H15.9082C16.2012 18.998 16.416 19.1348 16.5527 19.4082C16.6992 19.6816 16.6895 19.9404 16.5234 20.1846C16.1133 20.7998 15.542 21.1074 14.8096 21.1074ZM29.209 24.5498C29.4922 24.7451 29.6436 25.0186 29.6631 25.3701C29.6826 25.7217 29.5557 26.0098 29.2822 26.2344L25.9131 29.1934C25.5322 29.5352 25.0977 29.6426 24.6094 29.5156C24.1211 29.3887 23.7891 29.0859 23.6133 28.6074L22.9834 26.8496C21.9287 28.0312 20.6738 28.9541 19.2188 29.6182C17.7734 30.2822 16.2158 30.6143 14.5459 30.6143C12.9932 30.6143 11.5283 30.3262 10.1514 29.75C8.78418 29.1738 7.58301 28.3633 6.54785 27.3184L6.0791 28.6074C5.90332 29.0859 5.57129 29.3887 5.08301 29.5156C4.59473 29.6426 4.16016 29.5352 3.7793 29.1934L0.410156 26.2344C0.136719 26.0098 0.00976562 25.7217 0.0292969 25.3701C0.0488281 25.0186 0.205078 24.7451 0.498047 24.5498L3.61816 22.4404C3.52051 22.1475 3.43262 21.8496 3.35449 21.5469C3.28613 21.2344 3.22266 20.9219 3.16406 20.6094C2.25586 20.3066 1.50391 19.7598 0.908203 18.9688C0.322266 18.168 0.0292969 17.2598 0.0292969 16.2441C0.0292969 15.4238 0.224609 14.6719 0.615234 13.9883C1.00586 13.3047 1.52344 12.7578 2.16797 12.3477V9.56445C2.16797 8.31445 2.44629 7.16699 3.00293 6.12207C3.55957 5.07715 4.31641 4.20801 5.27344 3.51465C6.23047 2.81152 7.30469 2.37207 8.49609 2.19629C8.52539 1.58105 8.75977 1.06348 9.19922 0.643555C9.64844 0.213867 10.1807 -0.000976562 10.7959 -0.000976562H16.9336C18.3887 -0.000976562 19.751 0.272461 21.0205 0.819336C22.2998 1.36621 23.4229 2.12305 24.3896 3.08984C25.3662 4.05664 26.1279 5.17969 26.6748 6.45898C27.2217 7.72852 27.4951 9.0957 27.4951 10.5605V12.3916C28.1201 12.8018 28.623 13.3438 29.0039 14.0176C29.3945 14.6914 29.5898 15.4336 29.5898 16.2441C29.5898 17.3574 29.2383 18.3389 28.5352 19.1885C27.832 20.0283 26.958 20.5508 25.9131 20.7559C25.8643 20.9902 25.8105 21.2197 25.752 21.4443C25.7031 21.6689 25.6445 21.8936 25.5762 22.1182L29.209 24.5498ZM25.0049 18.7197H25.0342C25.708 18.7197 26.2842 18.4805 26.7627 18.002C27.2412 17.5137 27.4805 16.9277 27.4805 16.2441C27.4805 15.5801 27.2559 15.0137 26.8066 14.5449C26.3672 14.0664 25.8301 13.8076 25.1953 13.7686H23.4521L23.1592 13.2705L23.0273 13.124C22.6562 12.6943 22.2119 12.3574 21.6943 12.1133C21.1768 11.8594 20.6201 11.7324 20.0244 11.7324H17.5342C15.8154 11.7324 14.2285 11.3271 12.7734 10.5166C11.3184 9.70605 10.1221 8.63184 9.18457 7.29395C8.37402 8.99316 7.25586 10.4238 5.83008 11.5859C5.45898 11.8789 5.19531 12.2549 5.03906 12.7139L4.90723 13.124V13.2266L4.92188 13.6367L4.05762 13.8271C3.52051 13.9443 3.06641 14.2275 2.69531 14.6768C2.32422 15.126 2.13867 15.6484 2.13867 16.2441C2.13867 16.8691 2.34375 17.416 2.75391 17.8848C3.16406 18.3438 3.66211 18.6123 4.24805 18.6904L5.06836 18.8076L5.15625 19.6279C5.18555 19.9014 5.22461 20.1699 5.27344 20.4336C5.33203 20.6973 5.39551 20.9561 5.46387 21.21C5.83496 22.665 6.46484 23.9492 7.35352 25.0625C8.22266 26.1465 9.27734 26.9912 10.5176 27.5967C11.7676 28.2021 13.1104 28.5049 14.5459 28.5049C16.0986 28.5049 17.5342 28.1533 18.8525 27.4502C20.1807 26.7471 21.2793 25.7656 22.1484 24.5059C22.8906 23.4316 23.4131 22.2158 23.7158 20.8584C23.7646 20.6631 23.8037 20.4678 23.833 20.2725C23.8721 20.0674 23.9062 19.8623 23.9355 19.6572L24.0527 18.7051L25.0049 18.7197Z" fill="#3D3129"/>
</svg>
