<svg width="40" height="41" viewBox="0 0 40 41" fill="none" xmlns="http://www.w3.org/2000/svg">
<path d="M27.5875 10.9936C27.8326 10.8655 28.0686 10.7199 28.2937 10.558C30.1187 9.24469 30.6812 6.82953 29.5437 5.17672C28.4062 3.52391 26.0062 3.25485 24.1812 4.58094C22.3562 5.90703 21.4187 8.25172 20.4 10.9872L27.5875 10.9936ZM5.4375 19.5139H34.5687V34.6967C34.5687 35.3763 34.3054 36.0281 33.8365 36.5087C33.3677 36.9892 32.7318 37.2592 32.0687 37.2592H7.9375C7.27446 37.2592 6.63857 36.9892 6.16973 36.5087C5.70089 36.0281 5.4375 35.3763 5.4375 34.6967V19.5139Z" stroke="white" stroke-width="3" stroke-linecap="round" stroke-linejoin="round"/>
<path d="M23.6562 19.5137H16.3438V37.259H23.6562V19.5137Z" stroke="white" stroke-width="3" stroke-linecap="round" stroke-linejoin="round"/>
<path d="M12.4125 10.9936C12.1687 10.8669 11.9346 10.7213 11.7125 10.558C9.88749 9.24469 9.31874 6.82953 10.4625 5.17672C11.6062 3.52391 14 3.25485 15.8312 4.58094C17.6625 5.90703 18.5875 8.25172 19.6125 10.9872L12.4125 10.9936Z" stroke="white" stroke-width="3" stroke-linecap="round" stroke-linejoin="round"/>
<path d="M34.0625 10.9922H5.9375C4.90197 10.9922 4.0625 11.8526 4.0625 12.9141V17.5906C4.0625 18.652 4.90197 19.5125 5.9375 19.5125H34.0625C35.098 19.5125 35.9375 18.652 35.9375 17.5906V12.9141C35.9375 11.8526 35.098 10.9922 34.0625 10.9922Z" stroke="white" stroke-width="3" stroke-linecap="round" stroke-linejoin="round"/>
<path d="M24.325 10.9922H15.6813V19.5125H24.325V10.9922Z" stroke="white" stroke-width="3" stroke-linecap="round" stroke-linejoin="round"/>
</svg>
