<svg width="24" height="30" viewBox="0 0 24 30" fill="none" xmlns="http://www.w3.org/2000/svg">
<path d="M23.0101 16.7349V16.6849C23.0343 16.542 23.0272 16.3956 22.9892 16.2557C22.9512 16.1158 22.8833 15.9859 22.7901 15.8749C22.7901 15.8049 22.7901 15.7249 22.7101 15.6549L15.7101 1.6549C15.354 0.950007 14.7343 0.413978 13.9854 0.163115C13.2366 -0.0877485 12.419 -0.0332097 11.7101 0.314898C11.4856 0.434678 11.2773 0.582532 11.0901 0.754898C10.9212 0.592649 10.7332 0.451607 10.5301 0.334898C10.21 0.156184 9.85617 0.0461044 9.49117 0.0116704C9.12617 -0.0227636 8.758 0.0192033 8.41011 0.134898C8.02682 0.257679 7.67329 0.458897 7.37201 0.72575C7.07072 0.992602 6.82828 1.31925 6.66011 1.6849L0.300108 15.6849C0.300108 15.7549 0.300108 15.8249 0.230108 15.9049C0.141033 16.0124 0.0754403 16.1373 0.0375504 16.2716C-0.000339575 16.4059 -0.00968737 16.5467 0.0101084 16.6849V16.9349C0.0154764 17.1241 0.0744269 17.3079 0.180108 17.4649L2.01011 27.1749C2.0429 27.3446 2.11909 27.5028 2.23125 27.6343C2.34342 27.7657 2.48772 27.8658 2.65011 27.9249L8.11011 29.9249C8.26596 29.9816 8.43346 29.9986 8.59753 29.9745C8.76161 29.9503 8.9171 29.8857 9.05001 29.7866C9.18292 29.6874 9.28907 29.5567 9.35892 29.4063C9.42876 29.2559 9.4601 29.0904 9.45011 28.9249C9.33124 27.4135 9.5961 25.8966 10.2201 24.5149C10.6403 23.8094 10.9506 23.0439 11.1401 22.2449C11.3504 23.0594 11.6879 23.8356 12.1401 24.5449C12.8222 25.8917 13.123 27.3994 13.0101 28.9049C12.999 29.0428 13.0167 29.1815 13.062 29.3122C13.1073 29.4429 13.1792 29.5628 13.2731 29.6643C13.3671 29.7658 13.4812 29.8467 13.608 29.9019C13.7349 29.9571 13.8718 29.9853 14.0101 29.9849C14.1188 29.9857 14.2269 29.9688 14.3301 29.9349L20.3301 27.9349C20.4994 27.8794 20.6507 27.7796 20.7685 27.646C20.8863 27.5124 20.9662 27.3498 21.0001 27.1749L22.8401 17.5049C22.944 17.3507 23.0029 17.1707 23.0101 16.9849V16.7349ZM11.0101 10.5849C10.6047 10.0183 10.056 9.56963 9.42011 9.2849L11.0101 5.7749L12.7501 9.2449C12.0625 9.531 11.4624 9.99317 11.0101 10.5849ZM8.52011 23.4649C7.87577 24.7329 7.53352 26.1327 7.52011 27.5549L3.89011 26.2449L2.07011 16.7049C2.06409 16.6384 2.06409 16.5714 2.07011 16.5049L8.43011 2.5049C8.48103 2.37992 8.55971 2.26816 8.6602 2.17807C8.76068 2.08798 8.88033 2.02193 9.01011 1.9849C9.09349 1.94767 9.18379 1.92843 9.27511 1.92843C9.36643 1.92843 9.45672 1.94767 9.54011 1.9849C9.7618 2.13061 9.92337 2.35154 9.99504 2.60697C10.0667 2.8624 10.0436 3.13513 9.93011 3.3749L4.41011 15.5649C4.30004 15.8062 4.29036 16.0814 4.38319 16.3299C4.47602 16.5784 4.66376 16.7798 4.90511 16.8899C5.14646 17 5.42164 17.0096 5.67013 16.9168C5.91861 16.824 6.12004 16.6362 6.23011 16.3949L8.60011 11.1849C8.65336 11.1892 8.70686 11.1892 8.76011 11.1849C9.25131 11.5123 9.6424 11.9691 9.89011 12.5049C9.95491 12.6577 9.9954 12.8196 10.0101 12.9849C10.0008 13.1681 10.0008 13.3517 10.0101 13.5349C9.94124 14.4828 9.69355 15.4091 9.28011 16.2649C9.18232 16.4705 9.15762 16.7033 9.21011 16.9249C9.21011 16.9249 10.1001 20.8649 8.52011 23.4649ZM19.1401 26.2149L15.0101 27.5949C14.9787 26.1284 14.5762 24.6937 13.8401 23.4249C12.1101 20.8349 13.0101 16.9849 13.0101 16.9849C13.0679 16.7364 13.0285 16.4753 12.9001 16.2549C12.4049 15.4293 12.1008 14.5033 12.0101 13.5449V13.0449C12.015 12.8546 12.0593 12.6673 12.1401 12.4949C12.4282 11.8961 12.9113 11.413 13.5101 11.1249C13.5896 11.1624 13.6736 11.1893 13.7601 11.2049L16.3701 16.4249C16.426 16.5466 16.5058 16.6558 16.6047 16.7461C16.7036 16.8364 16.8196 16.9059 16.9459 16.9505C17.0722 16.995 17.2061 17.0138 17.3398 17.0056C17.4735 16.9975 17.6041 16.9625 17.724 16.9029C17.844 16.8433 17.9507 16.7602 18.0379 16.6586C18.125 16.5569 18.1909 16.4388 18.2316 16.3112C18.2723 16.1836 18.2869 16.0491 18.2746 15.9158C18.2623 15.7824 18.2234 15.6529 18.1601 15.5349L12.1601 3.4349C12.0906 3.31628 12.0462 3.1846 12.0299 3.04808C12.0135 2.91156 12.0255 2.77313 12.065 2.64144C12.1046 2.50975 12.1709 2.38764 12.2597 2.28272C12.3486 2.17781 12.4582 2.09235 12.5816 2.03169C12.705 1.97103 12.8395 1.93646 12.9769 1.93016C13.1143 1.92385 13.2514 1.94594 13.3799 1.99504C13.5083 2.04414 13.6252 2.1192 13.7233 2.21553C13.8215 2.31186 13.8987 2.42739 13.9501 2.5549L20.9501 16.5549C20.9559 16.6148 20.9559 16.675 20.9501 16.7349L19.1401 26.2149Z" fill="white"/>
</svg>
