<svg width="30" height="31" viewBox="0 0 30 31" fill="none" xmlns="http://www.w3.org/2000/svg">
<path d="M11.2939 1.14258C11.6943 0.78125 12.1533 0.50293 12.6709 0.307617C13.1885 0.102539 13.7402 0.00488281 14.3262 0.0146484C14.873 0.0244141 15.3906 0.126953 15.8789 0.322266C16.3672 0.507813 16.8066 0.766602 17.1973 1.09863C17.9395 1.7334 18.4229 2.51953 18.6475 3.45703C18.7256 3.79883 18.7646 4.15039 18.7646 4.51172C18.7646 5.50781 18.4766 6.3916 17.9004 7.16309C17.3242 7.93457 16.5967 8.47168 15.7178 8.77441C15.5322 8.84277 15.3564 8.81836 15.1904 8.70117C15.0342 8.58398 14.9561 8.42773 14.9561 8.23242C14.9561 8.08594 15.0098 7.95898 15.1172 7.85156C15.6738 7.20703 15.957 6.45508 15.9668 5.5957C15.9668 5.12695 15.8789 4.6875 15.7031 4.27734C15.5273 3.85742 15.2832 3.49121 14.9707 3.17871H12.5098C10.6934 3.17871 9.03809 3.74023 7.54395 4.86328C6.30371 5.80078 5.36621 7.00195 4.73145 8.4668C4.09668 9.93164 3.85254 11.4697 3.99902 13.0811L4.2627 15.4541C4.32129 15.9814 4.10156 16.3477 3.60352 16.5527C3.16406 16.7285 2.80273 17.0166 2.51953 17.417C2.24609 17.8076 2.10938 18.252 2.10938 18.75C2.10938 19.3457 2.2998 19.8633 2.68066 20.3027C3.07129 20.7422 3.5498 21.0059 4.11621 21.0938C4.63379 21.1816 4.92676 21.4844 4.99512 22.002C5.15137 23.1445 5.51758 24.126 6.09375 24.9463C6.66992 25.7568 7.3877 26.4209 8.24707 26.9385C9.11621 27.4756 10.0928 27.8711 11.1768 28.125C12.2607 28.3887 13.374 28.5205 14.5166 28.5205C15.6592 28.5205 16.7725 28.3887 17.8564 28.125C18.9502 27.8711 19.9316 27.4756 20.8008 26.9385C21.6504 26.4209 22.3633 25.7568 22.9395 24.9463C23.5156 24.126 23.8867 23.1445 24.0527 22.002C24.1211 21.4844 24.4141 21.1816 24.9316 21.0938C25.498 21.0059 25.9717 20.7422 26.3525 20.3027C26.7334 19.8633 26.9238 19.3457 26.9238 18.75C26.9238 18.252 26.7822 17.8076 26.499 17.417C26.2256 17.0166 25.8691 16.7285 25.4297 16.5527C24.9316 16.3477 24.7119 15.9814 24.7705 15.4541L25.0342 13.0811C25.1904 11.4697 24.9512 9.93164 24.3164 8.4668C23.6816 7.00195 22.7441 5.80078 21.5039 4.86328C20.9668 4.46289 20.3955 4.13086 19.79 3.86719C19.6826 2.93945 19.3604 2.09473 18.8232 1.33301C20.249 1.66504 21.5625 2.27539 22.7637 3.16406V3.17871C24.3164 4.34082 25.4785 5.8252 26.25 7.63184C27.0312 9.43848 27.3242 11.3232 27.1289 13.2861V13.3008L26.9531 14.9561C27.5781 15.3564 28.0811 15.8936 28.4619 16.5674C28.8428 17.2314 29.0332 17.959 29.0332 18.75C29.0332 19.7363 28.75 20.6152 28.1836 21.3867C27.6172 22.1582 26.8945 22.6953 26.0156 22.998C25.7422 24.3066 25.2393 25.4346 24.5068 26.3818C23.7744 27.3389 22.9053 28.125 21.8994 28.7402C20.8252 29.4043 19.6436 29.8828 18.3545 30.1758C17.0752 30.4785 15.7959 30.6299 14.5166 30.6299C13.2373 30.6299 11.9531 30.4785 10.6641 30.1758C9.38477 29.8828 8.20801 29.4043 7.13379 28.7402C6.12793 28.125 5.25879 27.3389 4.52637 26.3818C3.80371 25.4346 3.30078 24.3066 3.01758 22.998C2.13867 22.6953 1.41602 22.1582 0.849609 21.3867C0.283203 20.6152 0 19.7363 0 18.75C0 17.959 0.19043 17.2314 0.571289 16.5674C0.952148 15.8936 1.45996 15.3564 2.09473 14.9561L1.9043 13.3008V13.2861C1.71875 11.3232 2.01172 9.43848 2.7832 7.63184C3.56445 5.8252 4.72656 4.34082 6.26953 3.17871V3.16406C7.7832 2.04102 9.45801 1.36719 11.2939 1.14258ZM11.3379 22.4268C11.7969 22.6709 12.2949 22.8613 12.832 22.998C13.3691 23.1348 13.9307 23.2031 14.5166 23.2031C15.0928 23.2031 15.6494 23.1348 16.1865 22.998C16.7334 22.8613 17.2412 22.6709 17.71 22.4268C17.8662 22.3486 18.0029 22.3779 18.1201 22.5146C18.2373 22.6416 18.252 22.7783 18.1641 22.9248C17.7734 23.5205 17.2559 24.0039 16.6113 24.375C15.9766 24.7363 15.2783 24.917 14.5166 24.917C13.7549 24.917 13.0518 24.7363 12.4072 24.375C11.7725 24.0039 11.2646 23.5205 10.8838 22.9248C10.7861 22.7686 10.7959 22.627 10.9131 22.5C11.04 22.3633 11.1816 22.3389 11.3379 22.4268ZM14.5166 21.8115C15.0439 21.8115 15.4541 21.5967 15.7471 21.167C15.8643 20.9912 15.874 20.8105 15.7764 20.625C15.6787 20.4297 15.5225 20.332 15.3076 20.332H13.7402C13.5254 20.332 13.3643 20.4297 13.2568 20.625C13.1592 20.8105 13.1738 20.9912 13.3008 21.167C13.5742 21.5967 13.9795 21.8115 14.5166 21.8115ZM8.93555 15.8496C8.08594 15.8496 7.33398 16.1182 6.67969 16.6553C6.02539 17.1826 5.60059 17.8467 5.40527 18.6475C5.34668 18.8721 5.39062 19.0771 5.53711 19.2627C5.68359 19.4482 5.87402 19.541 6.1084 19.541H7.23633C7.17773 19.3457 7.14844 19.1455 7.14844 18.9404C7.14844 18.2959 7.37305 17.749 7.82227 17.2998C8.28125 16.8408 8.83301 16.6113 9.47754 16.6113C10.1221 16.6113 10.6689 16.8408 11.1182 17.2998C11.5674 17.749 11.7969 18.2959 11.8066 18.9404C11.8066 19.126 11.7773 19.3262 11.7188 19.541H11.9092C12.0947 19.541 12.2461 19.4727 12.3633 19.3359C12.4902 19.1895 12.5391 19.0186 12.5098 18.8232C12.3438 17.9834 11.9238 17.2803 11.25 16.7139C10.5859 16.1377 9.81445 15.8496 8.93555 15.8496ZM19.4971 15.8496C20.3467 15.8496 21.0938 16.1182 21.7383 16.6553C22.3926 17.1826 22.8174 17.8467 23.0127 18.6475C23.0713 18.8721 23.0273 19.0771 22.8809 19.2627C22.7441 19.4482 22.5586 19.541 22.3242 19.541H21.1963C21.2451 19.3457 21.2695 19.1455 21.2695 18.9404C21.2695 18.2959 21.0449 17.749 20.5957 17.2998C20.1465 16.8408 19.5996 16.6113 18.9551 16.6113C18.3105 16.6113 17.7588 16.8408 17.2998 17.2998C16.8506 17.749 16.626 18.2959 16.626 18.9404C16.626 19.126 16.6504 19.3262 16.6992 19.541H16.5088C16.333 19.541 16.1816 19.4727 16.0547 19.3359C15.9277 19.1895 15.8838 19.0186 15.9229 18.8232C16.0889 17.9834 16.5039 17.2803 17.168 16.7139C17.832 16.1377 18.6084 15.8496 19.4971 15.8496ZM10.7959 18.9404C10.7959 18.5693 10.6689 18.2568 10.415 18.0029C10.1611 17.7393 9.84863 17.6074 9.47754 17.6074C9.19434 17.6074 8.93555 17.6855 8.70117 17.8418C8.73047 17.9004 8.74512 17.9639 8.74512 18.0322C8.74512 18.3057 8.6084 18.4424 8.33496 18.4424C8.30566 18.4424 8.27637 18.4375 8.24707 18.4277C8.17871 18.584 8.14453 18.7549 8.14453 18.9404C8.14453 19.1553 8.19336 19.3555 8.29102 19.541H10.6494C10.7471 19.3457 10.7959 19.1455 10.7959 18.9404ZM18.4717 17.6953C18.6279 17.6367 18.7891 17.6074 18.9551 17.6074C19.3262 17.6074 19.6387 17.7393 19.8926 18.0029C20.1562 18.2568 20.2881 18.5693 20.2881 18.9404C20.2881 19.1553 20.2393 19.3555 20.1416 19.541H17.7832C17.6758 19.3652 17.6221 19.165 17.6221 18.9404C17.6221 18.667 17.6953 18.418 17.8418 18.1934C17.9199 18.3594 18.0469 18.4424 18.2227 18.4424C18.4961 18.4424 18.6328 18.3057 18.6328 18.0322C18.6328 17.8857 18.5791 17.7734 18.4717 17.6953ZM7.80762 14.3115C8.09082 14.2139 8.42773 14.1406 8.81836 14.0918C9.21875 14.0332 9.67773 14.0283 10.1953 14.0771C10.3418 14.0869 10.4688 14.0479 10.5762 13.96C10.6934 13.8623 10.7568 13.7402 10.7666 13.5938C10.7861 13.4473 10.7471 13.3203 10.6494 13.2129C10.5615 13.0957 10.4443 13.0322 10.2979 13.0225C9.70215 12.9639 9.16504 12.9688 8.68652 13.0371C8.21777 13.1055 7.80762 13.2031 7.45605 13.3301C7.31934 13.3789 7.2168 13.4717 7.14844 13.6084C7.08984 13.7354 7.08496 13.8672 7.13379 14.0039C7.18262 14.1406 7.27051 14.2383 7.39746 14.2969C7.53418 14.3555 7.6709 14.3604 7.80762 14.3115ZM21.0791 13.3301C20.7373 13.2031 20.3271 13.1055 19.8486 13.0371C19.3799 12.9688 18.8477 12.9639 18.252 13.0225C18.1055 13.0322 17.9834 13.0957 17.8857 13.2129C17.7979 13.3203 17.7588 13.4473 17.7686 13.5938C17.7881 13.7402 17.8516 13.8623 17.959 13.96C18.0762 14.0479 18.208 14.0869 18.3545 14.0771C18.8721 14.0283 19.3262 14.0332 19.7168 14.0918C20.1172 14.1406 20.4541 14.2139 20.7275 14.3115C20.8643 14.3604 20.9961 14.3555 21.123 14.2969C21.2598 14.2383 21.3525 14.1406 21.4014 14.0039C21.4502 13.8672 21.4453 13.7354 21.3867 13.6084C21.3281 13.4717 21.2256 13.3789 21.0791 13.3301Z" fill="#3D3129"/>
</svg>
