<svg width="24" height="24" viewBox="0 0 24 24" fill="none" xmlns="http://www.w3.org/2000/svg">
<path d="M11 14H13C13.5304 14 14.0391 13.7893 14.4142 13.4142C14.7893 13.0391 15 12.5304 15 12C15 11.4696 14.7893 10.9609 14.4142 10.5858C14.0391 10.2107 13.5304 10 13 10H10C9.4 10 8.9 10.2 8.6 10.6L3 16" stroke="#878787" stroke-width="2" stroke-linecap="round" stroke-linejoin="round"/>
<path d="M7 20.0003L8.6 18.6003C8.9 18.2003 9.4 18.0003 10 18.0003H14C15.1 18.0003 16.1 17.6003 16.8 16.8003L21.4 12.4003C21.7859 12.0356 22.0111 11.5326 22.0261 11.0018C22.0411 10.4711 21.8447 9.95616 21.48 9.57027C21.1153 9.18438 20.6123 8.95916 20.0816 8.94416C19.5508 8.92916 19.0359 9.1256 18.65 9.49027L14.45 13.3903" stroke="#878787" stroke-width="2" stroke-linecap="round" stroke-linejoin="round"/>
<path d="M2 15L8 21" stroke="#878787" stroke-width="2" stroke-linecap="round" stroke-linejoin="round"/>
<path d="M19.5 8.5C20.2 7.8 21 6.9 21 5.8C21.0699 5.18893 20.9314 4.57216 20.607 4.04964C20.2825 3.52712 19.7911 3.12947 19.2124 2.92114C18.6337 2.71281 18.0016 2.706 17.4186 2.90182C16.8355 3.09763 16.3357 3.4846 16 4C15.6431 3.52458 15.1431 3.17613 14.5735 3.00578C14.0039 2.83544 13.3947 2.85219 12.8353 3.05356C12.2759 3.25494 11.7958 3.63034 11.4655 4.12465C11.1352 4.61896 10.9721 5.20614 11 5.8C11 7 11.8 7.8 12.5 8.6L16 12L19.5 8.5Z" stroke="#878787" stroke-width="2" stroke-linecap="round" stroke-linejoin="round"/>
</svg>
